<?xml version="1.0" encoding="utf-8" standalone="yes"?>
<!DOCTYPE svg PUBLIC "-//W3C//DTD SVG 1.1//EN" "http://www.w3.org/Graphics/SVG/1.1/DTD/svg11.dtd">
<svg xmlns="http://www.w3.org/2000/svg" xmlns:xlink="http://www.w3.org/1999/xlink" xmlns:dc="http://purl.org/dc/elements/1.1/" xmlns:cc="http://web.resource.org/cc/" xmlns:rdf="http://www.w3.org/1999/02/22-rdf-syntax-ns#" xmlns:sodipodi="http://sodipodi.sourceforge.net/DTD/sodipodi-0.dtd" xmlns:inkscape="http://www.inkscape.org/namespaces/inkscape" version="1.1" baseProfile="full" width="480px" height="360px" viewBox="0 0 480 360" preserveAspectRatio="xMidYMid meet" id="svg_document" style="zoom: 1;"><!-- Created with macSVG - https://macsvg.org/ - https://github.com/dsward2/macsvg/ --><title id="svg_document_title">Untitled.svg</title><defs id="svg_document_defs"></defs><g id="main_group"></g><rect stroke="#000000" x="38px" height="268px" y="48px" id="rect1" stroke-width="3px" width="415px" fill="#baffe8" transform=""></rect><line stroke="#000000" y1="298px" id="line15" x1="121px" stroke-width="3px" y2="298px" x2="158px" transform=""></line><line stroke="#000000" y1="109px" id="line16" x1="100px" stroke-width="3px" y2="144px" x2="39px" transform=""></line><line stroke="#000000" y1="184px" id="line17" x1="98px" stroke-width="3px" y2="217px" x2="39px" transform=""></line><line stroke="#000000" y1="269px" id="line14" x1="201px" stroke-width="3px" y2="268px" x2="236px" transform=""></line><line stroke="#000000" y1="236px" id="line13" x1="277px" stroke-width="3px" y2="236px" x2="311px" transform=""></line><rect stroke="#000000" x="39px" height="208px" y="106px" id="rect2" stroke-width="3px" width="62px" fill="#40ffd3" transform=""></rect><line stroke="#000000" y1="144px" id="line18" x1="100px" stroke-width="3px" y2="181px" x2="39px" transform=""></line><rect stroke="#000000" x="40px" height="59px" y="49px" id="rect3" stroke-width="3px" width="411px" fill="#1f7560" transform=""></rect><line stroke="#000000" y1="143px" id="line1" x1="39px" stroke-width="3px" y2="148px" x2="453px" transform=""></line><line stroke="#000000" y1="181px" stroke-width="3px" x1="41px" id="line2" y2="186px" x2="455px" transform=""></line><line stroke="#000000" y1="217px" stroke-width="3px" x1="42px" id="line3" y2="222px" x2="456px" transform=""></line><line stroke="#000000" y1="253px" stroke-width="3px" x1="39px" id="line4" y2="258px" x2="453px" transform=""></line><line stroke="#000000" y1="283px" stroke-width="3px" x1="37px" id="line5" y2="288px" x2="451px" transform=""></line><line stroke="#000000" y1="106px" id="line6" x1="177px" stroke-width="3px" y2="316px" x2="177px" transform=""></line><line stroke="#000000" y1="106px" id="line7" x1="255px" stroke-width="3px" y2="316px" x2="257px" transform=""></line><line stroke="#000000" y1="108px" id="line8" x1="326px" stroke-width="3px" y2="320px" x2="327px" transform=""></line><line stroke="#000000" y1="108px" id="line9" x1="394px" stroke-width="3px" y2="318px" x2="395px" transform=""></line><line stroke="#000000" y1="123px" id="line10" x1="199px" stroke-width="3px" y2="123px" x2="234px" transform=""></line><line stroke="#000000" y1="162px" id="line11" x1="271px" stroke-width="3px" y2="163px" x2="309px" transform=""></line><line stroke="#000000" y1="199px" id="line12" x1="198px" stroke-width="3px" y2="200px" x2="233px" transform=""></line><line stroke="#000000" y1="218px" id="line19" x1="100px" stroke-width="3px" y2="252px" x2="39px" transform=""></line><line stroke="#000000" y1="254px" id="line20" x1="100px" stroke-width="3px" y2="283px" x2="38px" transform=""></line><line stroke="#000000" y1="284px" id="line21" x1="100px" stroke-width="3px" y2="314px" x2="37px" transform=""></line><text stroke="none" style="outline-style:none;" id="text1" stroke-width="1px" x="250px" text-rendering="geometricPrecision" font-family="Avenir-LightOblique" fill="#000000" font-size="40px" y="89px" transform="" text-anchor="middle">Rúbrica</text></svg>